<?xml version="1.0" encoding="UTF-8" standalone="no"?>
<!DOCTYPE svg PUBLIC "-//W3C//DTD SVG 1.1//EN"
 "http://www.w3.org/Graphics/SVG/1.1/DTD/svg11.dtd">
<!-- Generated by graphviz version 10.0.1 (20240210.2158)
 -->
<!-- Title: math.hpp Pages: 1 -->
<svg width="272pt" height="83pt"
 viewBox="0.00 0.00 272.00 82.50" xmlns="http://www.w3.org/2000/svg" xmlns:xlink="http://www.w3.org/1999/xlink">
<g id="graph0" class="graph" transform="scale(1 1) rotate(0) translate(4 78.5)">
<title>math.hpp</title>
<!-- Node1 -->
<g id="Node000001" class="node">
<title>Node1</title>
<g id="a_Node000001"><a xlink:title=" ">
<polygon fill="#999999" stroke="#666666" points="169.75,-74.5 113.25,-74.5 113.25,-55.25 169.75,-55.25 169.75,-74.5"/>
<text text-anchor="middle" x="141.5" y="-61" font-family="Helvetica,sans-Serif" font-size="10.00">math.hpp</text>
</a>
</g>
</g>
<!-- Node2 -->
<g id="Node000002" class="node">
<title>Node2</title>
<g id="a_Node000002"><a xlink:title=" ">
<polygon fill="#e0e0e0" stroke="#999999" points="61,-19.25 0,-19.25 0,0 61,0 61,-19.25"/>
<text text-anchor="middle" x="30.5" y="-5.75" font-family="Helvetica,sans-Serif" font-size="10.00">bcpl/types</text>
</a>
</g>
</g>
<!-- Node1&#45;&gt;Node2 -->
<g id="edge1_Node000001_Node000002" class="edge">
<title>Node1&#45;&gt;Node2</title>
<g id="a_edge1_Node000001_Node000002"><a xlink:title=" ">
<path fill="none" stroke="#63b8ff" d="M122.67,-54.84C105.45,-46.58 79.7,-34.23 59.79,-24.68"/>
<polygon fill="#63b8ff" stroke="#63b8ff" points="61.32,-21.53 50.79,-20.36 58.29,-27.84 61.32,-21.53"/>
</a>
</g>
</g>
<!-- Node3 -->
<g id="Node000003" class="node">
<title>Node3</title>
<g id="a_Node000003"><a xlink:title=" ">
<polygon fill="#e0e0e0" stroke="#999999" points="134.38,-19.25 78.62,-19.25 78.62,0 134.38,0 134.38,-19.25"/>
<text text-anchor="middle" x="106.5" y="-5.75" font-family="Helvetica,sans-Serif" font-size="10.00">algorithm</text>
</a>
</g>
</g>
<!-- Node1&#45;&gt;Node3 -->
<g id="edge2_Node000001_Node000003" class="edge">
<title>Node1&#45;&gt;Node3</title>
<g id="a_edge2_Node000001_Node000003"><a xlink:title=" ">
<path fill="none" stroke="#63b8ff" d="M135.72,-55.08C131.09,-48.03 124.43,-37.9 118.63,-29.08"/>
<polygon fill="#63b8ff" stroke="#63b8ff" points="121.65,-27.31 113.24,-20.87 115.8,-31.15 121.65,-27.31"/>
</a>
</g>
</g>
<!-- Node4 -->
<g id="Node000004" class="node">
<title>Node4</title>
<g id="a_Node000004"><a xlink:title=" ">
<polygon fill="#e0e0e0" stroke="#999999" points="202.75,-19.25 152.25,-19.25 152.25,0 202.75,0 202.75,-19.25"/>
<text text-anchor="middle" x="177.5" y="-5.75" font-family="Helvetica,sans-Serif" font-size="10.00">numeric</text>
</a>
</g>
</g>
<!-- Node1&#45;&gt;Node4 -->
<g id="edge3_Node000001_Node000004" class="edge">
<title>Node1&#45;&gt;Node4</title>
<g id="a_edge3_Node000001_Node000004"><a xlink:title=" ">
<path fill="none" stroke="#63b8ff" d="M147.44,-55.08C152.21,-48.03 159.06,-37.9 165.02,-29.08"/>
<polygon fill="#63b8ff" stroke="#63b8ff" points="167.88,-31.11 170.58,-20.86 162.08,-27.19 167.88,-31.11"/>
</a>
</g>
</g>
<!-- Node5 -->
<g id="Node000005" class="node">
<title>Node5</title>
<g id="a_Node000005"><a xlink:title=" ">
<polygon fill="#e0e0e0" stroke="#999999" points="264,-19.25 221,-19.25 221,0 264,0 264,-19.25"/>
<text text-anchor="middle" x="242.5" y="-5.75" font-family="Helvetica,sans-Serif" font-size="10.00">vector</text>
</a>
</g>
</g>
<!-- Node1&#45;&gt;Node5 -->
<g id="edge4_Node000001_Node000005" class="edge">
<title>Node1&#45;&gt;Node5</title>
<g id="a_edge4_Node000001_Node000005"><a xlink:title=" ">
<path fill="none" stroke="#63b8ff" d="M158.63,-54.84C174.16,-46.66 197.3,-34.46 215.34,-24.94"/>
<polygon fill="#63b8ff" stroke="#63b8ff" points="216.73,-28.17 223.94,-20.41 213.47,-21.98 216.73,-28.17"/>
</a>
</g>
</g>
</g>
</svg>
