<?xml version="1.0" encoding="UTF-8" standalone="no"?>
<!DOCTYPE svg PUBLIC "-//W3C//DTD SVG 1.1//EN"
 "http://www.w3.org/Graphics/SVG/1.1/DTD/svg11.dtd">
<!-- Generated by graphviz version 12.2.1 (20241206.2353)
 -->
<!-- Title: bcpl::pollard Pages: 1 -->
<svg width="219pt" height="45pt"
 viewBox="0.00 0.00 219.25 45.25" xmlns="http://www.w3.org/2000/svg" xmlns:xlink="http://www.w3.org/1999/xlink">
<g id="graph0" class="graph" transform="scale(1 1) rotate(0) translate(4 41.25)">
<title>bcpl::pollard</title>
<!-- Node1 -->
<g id="Node000001" class="node">
<title>Node1</title>
<g id="a_Node000001"><a xlink:title="The function returns the smallest prime divisible of n &#160;&#160;nを割り切れるの最小の素数を返関数">
<polygon fill="#999999" stroke="#666666" points="211.25,-19.25 142.75,-19.25 142.75,0 211.25,0 211.25,-19.25"/>
<text text-anchor="middle" x="177" y="-5.75" font-family="Helvetica,sans-Serif" font-size="10.00">bcpl::pollard</text>
</a>
</g>
</g>
<!-- Node2 -->
<g id="Node000002" class="node">
<title>Node2</title>
<g id="a_Node000002"><a xlink:href="../../d5/da2/namespacebcpl.html#afb5340978e49756eb1f959b86f5252bd" target="_top" xlink:title="Prime factorize &#160;&#160;素因数分解をする関数">
<polygon fill="white" stroke="#666666" points="106.75,-19.25 0,-19.25 0,0 106.75,0 106.75,-19.25"/>
<text text-anchor="middle" x="53.38" y="-5.75" font-family="Helvetica,sans-Serif" font-size="10.00">bcpl::prime_factorize</text>
</a>
</g>
</g>
<!-- Node1&#45;&gt;Node2 -->
<g id="edge1_Node000001_Node000002" class="edge">
<title>Node1&#45;&gt;Node2</title>
<g id="a_edge1_Node000001_Node000002"><a xlink:title=" ">
<path fill="none" stroke="#63b8ff" d="M130.96,-9.62C123.15,-9.62 114.97,-9.62 106.99,-9.62"/>
<polygon fill="#63b8ff" stroke="#63b8ff" points="130.93,-13.13 140.93,-9.63 130.93,-6.13 130.93,-13.13"/>
</a>
</g>
</g>
<!-- Node2&#45;&gt;Node2 -->
<g id="edge2_Node000002_Node000002" class="edge">
<title>Node2&#45;&gt;Node2</title>
<g id="a_edge2_Node000002_Node000002"><a xlink:title=" ">
<path fill="none" stroke="#63b8ff" d="M75.32,-30.65C72.57,-34.53 65.26,-37.25 53.38,-37.25 31.64,-37.25 25.19,-28.15 34.02,-19.54"/>
<polygon fill="#63b8ff" stroke="#63b8ff" points="78.75,-29.96 73.07,-21.01 71.93,-31.55 78.75,-29.96"/>
</a>
</g>
</g>
</g>
</svg>
