<?xml version="1.0" encoding="UTF-8" standalone="no"?>
<!DOCTYPE svg PUBLIC "-//W3C//DTD SVG 1.1//EN"
 "http://www.w3.org/Graphics/SVG/1.1/DTD/svg11.dtd">
<!-- Generated by graphviz version 10.0.1 (20240210.2158)
 -->
<!-- Title: bcpl::prime_factorize Pages: 1 -->
<svg width="450pt" height="84pt"
 viewBox="0.00 0.00 450.00 84.25" xmlns="http://www.w3.org/2000/svg" xmlns:xlink="http://www.w3.org/1999/xlink">

<svg id="main" version="1.1" xmlns="http://www.w3.org/2000/svg" xmlns:xlink="http://www.w3.org/1999/xlink" xml:space="preserve" onload="init(evt)">
<style type="text/css"><![CDATA[
.node, .edge {opacity: 0.7;}
.node.selected, .edge.selected {opacity: 1;}
.edge:hover path { stroke: red; }
.edge:hover polygon { stroke: red; fill: red; }
]]></style>
<script type="application/ecmascript" xlink:href="../../svg.min.js"/>
<svg id="graph" class="graph">
<g id="graph0" class="graph" transform="scale(1 1) rotate(0) translate(4 80.25)">
<title>bcpl::prime_factorize</title>
<!-- Node1 -->
<g id="Node000001" class="node">
<title>Node1</title>
<g id="a_Node000001"><a xlink:title="Prime factorize &#160;&#160;素因数分解をする関数">
<polygon fill="#999999" stroke="#666666" points="106.75,-19.25 0,-19.25 0,0 106.75,0 106.75,-19.25"/>
<text text-anchor="middle" x="53.38" y="-5.75" font-family="Helvetica,sans-Serif" font-size="10.00">bcpl::prime_factorize</text>
</a>
</g>
</g>
<!-- Node1&#45;&gt;Node1 -->
<g id="edge6_Node000001_Node000001" class="edge">
<title>Node1&#45;&gt;Node1</title>
<g id="a_edge6_Node000001_Node000001"><a xlink:title=" ">
<path fill="none" stroke="#63b8ff" d="M34.02,-19.54C25.19,-28.15 31.64,-37.25 53.38,-37.25 65.26,-37.25 72.57,-34.53 75.32,-30.65"/>
<polygon fill="#63b8ff" stroke="#63b8ff" points="78.75,-29.96 73.07,-21.01 71.93,-31.55 78.75,-29.96"/>
</a>
</g>
</g>
<!-- Node2 -->
<g id="Node000002" class="node">
<title>Node2</title>
<g id="a_Node000002"><a xlink:href="../../d5/da2/namespacebcpl.html#ad5701c5b505560e0a723ae77add60825" target="_top" xlink:title="The function returns the smallest prime divisible of n &#160;&#160;nを割り切れるの最小の素数を返関数">
<polygon fill="white" stroke="#666666" points="211.25,-38.25 142.75,-38.25 142.75,-19 211.25,-19 211.25,-38.25"/>
<text text-anchor="middle" x="177" y="-24.75" font-family="Helvetica,sans-Serif" font-size="10.00">bcpl::pollard</text>
</a>
</g>
</g>
<!-- Node1&#45;&gt;Node2 -->
<g id="edge1_Node000001_Node000002" class="edge">
<title>Node1&#45;&gt;Node2</title>
<g id="a_edge1_Node000001_Node000002"><a xlink:title=" ">
<path fill="none" stroke="#63b8ff" d="M107.01,-17.85C115.12,-19.11 123.43,-20.41 131.34,-21.65"/>
<polygon fill="#63b8ff" stroke="#63b8ff" points="130.67,-25.09 141.09,-23.17 131.75,-18.17 130.67,-25.09"/>
</a>
</g>
</g>
<!-- Node4 -->
<g id="Node000004" class="node">
<title>Node4</title>
<g id="a_Node000004"><a xlink:href="../../d5/da2/namespacebcpl.html#a58c3ca1e46633af7c7fb85a65b28fe62" target="_top" xlink:title="calculate a ** n mod m &#160;&#160;a の n 乗 mod m を求めます">
<polygon fill="white" stroke="#666666" points="442,-38.25 360,-38.25 360,-19 442,-19 442,-38.25"/>
<text text-anchor="middle" x="401" y="-24.75" font-family="Helvetica,sans-Serif" font-size="10.00">bcpl::pow_mod</text>
</a>
</g>
</g>
<!-- Node1&#45;&gt;Node4 -->
<g id="edge5_Node000001_Node000004" class="edge">
<title>Node1&#45;&gt;Node4</title>
<g id="a_edge5_Node000001_Node000004"><a xlink:title=" ">
<path fill="none" stroke="#63b8ff" d="M107.06,-8.31C137.52,-7.88 176.57,-7.88 211.25,-9.62 257.75,-11.96 310.46,-17.51 348.33,-22.01"/>
<polygon fill="#63b8ff" stroke="#63b8ff" points="347.74,-25.47 358.08,-23.19 348.58,-18.52 347.74,-25.47"/>
</a>
</g>
</g>
<!-- Node3 -->
<g id="Node000003" class="node">
<title>Node3</title>
<g id="a_Node000003"><a xlink:href="../../d5/da2/namespacebcpl.html#af6d1ac2a68a6e6958d999935344e2b06" target="_top" xlink:title="Determines whether a number is prime or not &#160;&#160;素数かどうかの判定を行います">
<polygon fill="white" stroke="#666666" points="324,-76.25 247.25,-76.25 247.25,-57 324,-57 324,-76.25"/>
<text text-anchor="middle" x="285.62" y="-62.75" font-family="Helvetica,sans-Serif" font-size="10.00">bcpl::is_prime</text>
</a>
</g>
</g>
<!-- Node2&#45;&gt;Node3 -->
<g id="edge2_Node000002_Node000003" class="edge">
<title>Node2&#45;&gt;Node3</title>
<g id="a_edge2_Node000002_Node000003"><a xlink:title=" ">
<path fill="none" stroke="#63b8ff" d="M206.29,-38.71C218.44,-43.04 232.83,-48.16 245.94,-52.84"/>
<polygon fill="#63b8ff" stroke="#63b8ff" points="244.55,-56.06 255.14,-56.12 246.9,-49.46 244.55,-56.06"/>
</a>
</g>
</g>
<!-- Node2&#45;&gt;Node4 -->
<g id="edge4_Node000002_Node000004" class="edge">
<title>Node2&#45;&gt;Node4</title>
<g id="a_edge4_Node000002_Node000004"><a xlink:title=" ">
<path fill="none" stroke="#63b8ff" d="M211.72,-28.62C247.97,-28.62 306.06,-28.62 348.14,-28.62"/>
<polygon fill="#63b8ff" stroke="#63b8ff" points="348.04,-32.13 358.04,-28.63 348.04,-25.13 348.04,-32.13"/>
</a>
</g>
</g>
<!-- Node3&#45;&gt;Node4 -->
<g id="edge3_Node000003_Node000004" class="edge">
<title>Node3&#45;&gt;Node4</title>
<g id="a_edge3_Node000003_Node000004"><a xlink:title=" ">
<path fill="none" stroke="#63b8ff" d="M316.71,-56.54C329.75,-52.17 345.23,-46.98 359.28,-42.27"/>
<polygon fill="#63b8ff" stroke="#63b8ff" points="360.36,-45.6 368.73,-39.1 358.14,-38.96 360.36,-45.6"/>
</a>
</g>
</g>
</g>
</svg>
</svg>

<style type='text/css'>
<![CDATA[
[data-mouse-over-selected='false'] { opacity: 0.7; }
[data-mouse-over-selected='true']  { opacity: 1.0; }
]]>
</style>
<script type="application/ecmascript"><![CDATA[
document.addEventListener('DOMContentLoaded', (event) => {
  highlightEdges();
  highlightAdjacentNodes();
});
]]></script>
</svg>
