<?xml version="1.0" encoding="UTF-8" standalone="no"?>
<!DOCTYPE svg PUBLIC "-//W3C//DTD SVG 1.1//EN"
 "http://www.w3.org/Graphics/SVG/1.1/DTD/svg11.dtd">
<!-- Generated by graphviz version 10.0.1 (20240210.2158)
 -->
<!-- Title: bcpl::pow_mod Pages: 1 -->
<svg width="450pt" height="84pt"
 viewBox="0.00 0.00 450.00 84.25" xmlns="http://www.w3.org/2000/svg" xmlns:xlink="http://www.w3.org/1999/xlink">
<g id="graph0" class="graph" transform="scale(1 1) rotate(0) translate(4 80.25)">
<title>bcpl::pow_mod</title>
<!-- Node1 -->
<g id="Node000001" class="node">
<title>Node1</title>
<g id="a_Node000001"><a xlink:title="calculate a ** n mod m &#160;&#160;a の n 乗 mod m を求めます">
<polygon fill="#999999" stroke="#666666" points="442,-38.25 360,-38.25 360,-19 442,-19 442,-38.25"/>
<text text-anchor="middle" x="401" y="-24.75" font-family="Helvetica,sans-Serif" font-size="10.00">bcpl::pow_mod</text>
</a>
</g>
</g>
<!-- Node2 -->
<g id="Node000002" class="node">
<title>Node2</title>
<g id="a_Node000002"><a xlink:href="../../d5/da2/namespacebcpl.html#af6d1ac2a68a6e6958d999935344e2b06" target="_top" xlink:title="Determines whether a number is prime or not &#160;&#160;素数かどうかの判定を行います">
<polygon fill="white" stroke="#666666" points="324,-76.25 247.25,-76.25 247.25,-57 324,-57 324,-76.25"/>
<text text-anchor="middle" x="285.62" y="-62.75" font-family="Helvetica,sans-Serif" font-size="10.00">bcpl::is_prime</text>
</a>
</g>
</g>
<!-- Node1&#45;&gt;Node2 -->
<g id="edge1_Node000001_Node000002" class="edge">
<title>Node1&#45;&gt;Node2</title>
<g id="a_edge1_Node000001_Node000002"><a xlink:title=" ">
<path fill="none" stroke="#63b8ff" d="M359.01,-42.36C344.94,-47.08 329.47,-52.26 316.46,-56.63"/>
<polygon fill="#63b8ff" stroke="#63b8ff" points="360.11,-45.69 368.48,-39.19 357.89,-39.05 360.11,-45.69"/>
</a>
</g>
</g>
<!-- Node3 -->
<g id="Node000003" class="node">
<title>Node3</title>
<g id="a_Node000003"><a xlink:href="../../d5/da2/namespacebcpl.html#ad5701c5b505560e0a723ae77add60825" target="_top" xlink:title="The function returns the smallest prime divisible of n &#160;&#160;nを割り切れるの最小の素数を返関数">
<polygon fill="white" stroke="#666666" points="211.25,-38.25 142.75,-38.25 142.75,-19 211.25,-19 211.25,-38.25"/>
<text text-anchor="middle" x="177" y="-24.75" font-family="Helvetica,sans-Serif" font-size="10.00">bcpl::pollard</text>
</a>
</g>
</g>
<!-- Node1&#45;&gt;Node3 -->
<g id="edge5_Node000001_Node000003" class="edge">
<title>Node1&#45;&gt;Node3</title>
<g id="a_edge5_Node000001_Node000003"><a xlink:title=" ">
<path fill="none" stroke="#63b8ff" d="M348.12,-28.62C306.02,-28.62 247.9,-28.62 211.65,-28.62"/>
<polygon fill="#63b8ff" stroke="#63b8ff" points="348.03,-32.13 358.03,-28.63 348.03,-25.13 348.03,-32.13"/>
</a>
</g>
</g>
<!-- Node4 -->
<g id="Node000004" class="node">
<title>Node4</title>
<g id="a_Node000004"><a xlink:href="../../d5/da2/namespacebcpl.html#afb5340978e49756eb1f959b86f5252bd" target="_top" xlink:title="Prime factorize &#160;&#160;素因数分解をする関数">
<polygon fill="white" stroke="#666666" points="106.75,-19.25 0,-19.25 0,0 106.75,0 106.75,-19.25"/>
<text text-anchor="middle" x="53.38" y="-5.75" font-family="Helvetica,sans-Serif" font-size="10.00">bcpl::prime_factorize</text>
</a>
</g>
</g>
<!-- Node1&#45;&gt;Node4 -->
<g id="edge6_Node000001_Node000004" class="edge">
<title>Node1&#45;&gt;Node4</title>
<g id="a_edge6_Node000001_Node000004"><a xlink:title=" ">
<path fill="none" stroke="#63b8ff" d="M348.33,-22.01C310.46,-17.51 257.75,-11.96 211.25,-9.62 176.57,-7.88 137.52,-7.88 107.06,-8.31"/>
<polygon fill="#63b8ff" stroke="#63b8ff" points="347.74,-25.47 358.08,-23.19 348.58,-18.52 347.74,-25.47"/>
</a>
</g>
</g>
<!-- Node2&#45;&gt;Node3 -->
<g id="edge2_Node000002_Node000003" class="edge">
<title>Node2&#45;&gt;Node3</title>
<g id="a_edge2_Node000002_Node000003"><a xlink:title=" ">
<path fill="none" stroke="#63b8ff" d="M245.68,-52.74C232.55,-48.07 218.17,-42.94 206.06,-38.62"/>
<polygon fill="#63b8ff" stroke="#63b8ff" points="244.31,-55.97 254.91,-56.03 246.66,-49.38 244.31,-55.97"/>
</a>
</g>
</g>
<!-- Node3&#45;&gt;Node4 -->
<g id="edge3_Node000003_Node000004" class="edge">
<title>Node3&#45;&gt;Node4</title>
<g id="a_edge3_Node000003_Node000004"><a xlink:title=" ">
<path fill="none" stroke="#63b8ff" d="M131.23,-21.63C123.34,-20.4 115.07,-19.11 106.99,-17.84"/>
<polygon fill="#63b8ff" stroke="#63b8ff" points="130.53,-25.06 140.95,-23.15 131.61,-18.15 130.53,-25.06"/>
</a>
</g>
</g>
<!-- Node4&#45;&gt;Node4 -->
<g id="edge4_Node000004_Node000004" class="edge">
<title>Node4&#45;&gt;Node4</title>
<g id="a_edge4_Node000004_Node000004"><a xlink:title=" ">
<path fill="none" stroke="#63b8ff" d="M75.32,-30.65C72.57,-34.53 65.26,-37.25 53.38,-37.25 31.64,-37.25 25.19,-28.15 34.02,-19.54"/>
<polygon fill="#63b8ff" stroke="#63b8ff" points="78.75,-29.96 73.07,-21.01 71.93,-31.55 78.75,-29.96"/>
</a>
</g>
</g>
</g>
</svg>
