<?xml version="1.0" encoding="UTF-8" standalone="no"?>
<!DOCTYPE svg PUBLIC "-//W3C//DTD SVG 1.1//EN"
 "http://www.w3.org/Graphics/SVG/1.1/DTD/svg11.dtd">
<!-- Generated by graphviz version 11.0.0 (20240428.1522)
 -->
<!-- Title: bcpl::pow_mod Pages: 1 -->
<svg width="450pt" height="45pt"
 viewBox="0.00 0.00 450.00 45.25" xmlns="http://www.w3.org/2000/svg" xmlns:xlink="http://www.w3.org/1999/xlink">

<svg id="main" version="1.1" xmlns="http://www.w3.org/2000/svg" xmlns:xlink="http://www.w3.org/1999/xlink" xml:space="preserve" onload="init(evt)">
<style type="text/css"><![CDATA[
.node, .edge {opacity: 0.7;}
.node.selected, .edge.selected {opacity: 1;}
.edge:hover path { stroke: red; }
.edge:hover polygon { stroke: red; fill: red; }
]]></style>
<script type="application/ecmascript" xlink:href="../../svg.min.js"/>
<svg id="graph" class="graph">
<g id="graph0" class="graph" transform="scale(1 1) rotate(0) translate(4 41.25)">
<title>bcpl::pow_mod</title>
<!-- Node1 -->
<g id="Node000001" class="node">
<title>Node1</title>
<g id="a_Node000001"><a xlink:title="calculate a ** n mod m &#160;&#160;a の n 乗 mod m を求めます">
<polygon fill="#999999" stroke="#666666" points="442,-19.25 360,-19.25 360,0 442,0 442,-19.25"/>
<text text-anchor="middle" x="401" y="-5.75" font-family="Helvetica,sans-Serif" font-size="10.00">bcpl::pow_mod</text>
</a>
</g>
</g>
<!-- Node2 -->
<g id="Node000002" class="node">
<title>Node2</title>
<g id="a_Node000002"><a xlink:href="../../d5/da2/namespacebcpl.html#af6d1ac2a68a6e6958d999935344e2b06" target="_top" xlink:title="Determines whether a number is prime or not &#160;&#160;素数かどうかの判定を行います">
<polygon fill="white" stroke="#666666" points="324,-19.25 247.25,-19.25 247.25,0 324,0 324,-19.25"/>
<text text-anchor="middle" x="285.62" y="-5.75" font-family="Helvetica,sans-Serif" font-size="10.00">bcpl::is_prime</text>
</a>
</g>
</g>
<!-- Node1&#45;&gt;Node2 -->
<g id="edge1_Node000001_Node000002" class="edge">
<title>Node1&#45;&gt;Node2</title>
<g id="a_edge1_Node000001_Node000002"><a xlink:title=" ">
<path fill="none" stroke="#63b8ff" d="M348.34,-9.62C340.18,-9.62 331.89,-9.62 324.13,-9.62"/>
<polygon fill="#63b8ff" stroke="#63b8ff" points="348.2,-13.13 358.2,-9.63 348.2,-6.13 348.2,-13.13"/>
</a>
</g>
</g>
<!-- Node3 -->
<g id="Node000003" class="node">
<title>Node3</title>
<g id="a_Node000003"><a xlink:href="../../d5/da2/namespacebcpl.html#ad5701c5b505560e0a723ae77add60825" target="_top" xlink:title="The function returns the smallest prime divisible of n &#160;&#160;nを割り切れるの最小の素数を返関数">
<polygon fill="white" stroke="#666666" points="211.25,-19.25 142.75,-19.25 142.75,0 211.25,0 211.25,-19.25"/>
<text text-anchor="middle" x="177" y="-5.75" font-family="Helvetica,sans-Serif" font-size="10.00">bcpl::pollard</text>
</a>
</g>
</g>
<!-- Node2&#45;&gt;Node3 -->
<g id="edge2_Node000002_Node000003" class="edge">
<title>Node2&#45;&gt;Node3</title>
<g id="a_edge2_Node000002_Node000003"><a xlink:title=" ">
<path fill="none" stroke="#63b8ff" d="M235.72,-9.62C227.6,-9.62 219.34,-9.62 211.7,-9.62"/>
<polygon fill="#63b8ff" stroke="#63b8ff" points="235.52,-13.13 245.52,-9.63 235.52,-6.13 235.52,-13.13"/>
</a>
</g>
</g>
<!-- Node4 -->
<g id="Node000004" class="node">
<title>Node4</title>
<g id="a_Node000004"><a xlink:href="../../d5/da2/namespacebcpl.html#afb5340978e49756eb1f959b86f5252bd" target="_top" xlink:title="Prime factorize &#160;&#160;素因数分解をする関数">
<polygon fill="white" stroke="#666666" points="106.75,-19.25 0,-19.25 0,0 106.75,0 106.75,-19.25"/>
<text text-anchor="middle" x="53.38" y="-5.75" font-family="Helvetica,sans-Serif" font-size="10.00">bcpl::prime_factorize</text>
</a>
</g>
</g>
<!-- Node3&#45;&gt;Node4 -->
<g id="edge3_Node000003_Node000004" class="edge">
<title>Node3&#45;&gt;Node4</title>
<g id="a_edge3_Node000003_Node000004"><a xlink:title=" ">
<path fill="none" stroke="#63b8ff" d="M130.96,-9.62C123.15,-9.62 114.97,-9.62 106.99,-9.62"/>
<polygon fill="#63b8ff" stroke="#63b8ff" points="130.93,-13.13 140.93,-9.63 130.93,-6.13 130.93,-13.13"/>
</a>
</g>
</g>
<!-- Node4&#45;&gt;Node4 -->
<g id="edge4_Node000004_Node000004" class="edge">
<title>Node4&#45;&gt;Node4</title>
<g id="a_edge4_Node000004_Node000004"><a xlink:title=" ">
<path fill="none" stroke="#63b8ff" d="M75.32,-30.65C72.57,-34.53 65.26,-37.25 53.38,-37.25 31.64,-37.25 25.19,-28.15 34.02,-19.54"/>
<polygon fill="#63b8ff" stroke="#63b8ff" points="78.75,-29.96 73.07,-21.01 71.93,-31.55 78.75,-29.96"/>
</a>
</g>
</g>
</g>
</svg>
</svg>

<style type='text/css'>
<![CDATA[
[data-mouse-over-selected='false'] { opacity: 0.7; }
[data-mouse-over-selected='true']  { opacity: 1.0; }
]]>
</style>
<script type="application/ecmascript"><![CDATA[
document.addEventListener('DOMContentLoaded', (event) => {
  highlightEdges();
  highlightAdjacentNodes();
});
]]></script>
</svg>
