<?xml version="1.0" encoding="UTF-8" standalone="no"?>
<!DOCTYPE svg PUBLIC "-//W3C//DTD SVG 1.1//EN"
 "http://www.w3.org/Graphics/SVG/1.1/DTD/svg11.dtd">
<!-- Generated by graphviz version 12.2.1 (20241206.2353)
 -->
<!-- Title: bcpl::prime_factorize Pages: 1 -->
<svg width="450pt" height="45pt"
 viewBox="0.00 0.00 450.00 45.25" xmlns="http://www.w3.org/2000/svg" xmlns:xlink="http://www.w3.org/1999/xlink">
<g id="graph0" class="graph" transform="scale(1 1) rotate(0) translate(4 41.25)">
<title>bcpl::prime_factorize</title>
<!-- Node1 -->
<g id="Node000001" class="node">
<title>Node1</title>
<g id="a_Node000001"><a xlink:title="Prime factorize &#160;&#160;素因数分解をする関数">
<polygon fill="#999999" stroke="#666666" points="106.75,-19.25 0,-19.25 0,0 106.75,0 106.75,-19.25"/>
<text text-anchor="middle" x="53.38" y="-5.75" font-family="Helvetica,sans-Serif" font-size="10.00">bcpl::prime_factorize</text>
</a>
</g>
</g>
<!-- Node1&#45;&gt;Node1 -->
<g id="edge4_Node000001_Node000001" class="edge">
<title>Node1&#45;&gt;Node1</title>
<g id="a_edge4_Node000001_Node000001"><a xlink:title=" ">
<path fill="none" stroke="#63b8ff" d="M34.02,-19.54C25.19,-28.15 31.64,-37.25 53.38,-37.25 65.26,-37.25 72.57,-34.53 75.32,-30.65"/>
<polygon fill="#63b8ff" stroke="#63b8ff" points="78.75,-29.96 73.07,-21.01 71.93,-31.55 78.75,-29.96"/>
</a>
</g>
</g>
<!-- Node2 -->
<g id="Node000002" class="node">
<title>Node2</title>
<g id="a_Node000002"><a xlink:href="../../d5/da2/namespacebcpl.html#ad5701c5b505560e0a723ae77add60825" target="_top" xlink:title="The function returns the smallest prime divisible of n &#160;&#160;nを割り切れるの最小の素数を返関数">
<polygon fill="white" stroke="#666666" points="211.25,-19.25 142.75,-19.25 142.75,0 211.25,0 211.25,-19.25"/>
<text text-anchor="middle" x="177" y="-5.75" font-family="Helvetica,sans-Serif" font-size="10.00">bcpl::pollard</text>
</a>
</g>
</g>
<!-- Node1&#45;&gt;Node2 -->
<g id="edge1_Node000001_Node000002" class="edge">
<title>Node1&#45;&gt;Node2</title>
<g id="a_edge1_Node000001_Node000002"><a xlink:title=" ">
<path fill="none" stroke="#63b8ff" d="M107.01,-9.62C115.12,-9.62 123.43,-9.62 131.34,-9.62"/>
<polygon fill="#63b8ff" stroke="#63b8ff" points="131.07,-13.13 141.07,-9.63 131.07,-6.13 131.07,-13.13"/>
</a>
</g>
</g>
<!-- Node3 -->
<g id="Node000003" class="node">
<title>Node3</title>
<g id="a_Node000003"><a xlink:href="../../d5/da2/namespacebcpl.html#af6d1ac2a68a6e6958d999935344e2b06" target="_top" xlink:title="Determines whether a number is prime or not &#160;&#160;素数かどうかの判定を行います">
<polygon fill="white" stroke="#666666" points="324,-19.25 247.25,-19.25 247.25,0 324,0 324,-19.25"/>
<text text-anchor="middle" x="285.62" y="-5.75" font-family="Helvetica,sans-Serif" font-size="10.00">bcpl::is_prime</text>
</a>
</g>
</g>
<!-- Node2&#45;&gt;Node3 -->
<g id="edge2_Node000002_Node000003" class="edge">
<title>Node2&#45;&gt;Node3</title>
<g id="a_edge2_Node000002_Node000003"><a xlink:title=" ">
<path fill="none" stroke="#63b8ff" d="M211.74,-9.62C219.37,-9.62 227.62,-9.62 235.73,-9.62"/>
<polygon fill="#63b8ff" stroke="#63b8ff" points="235.52,-13.13 245.52,-9.63 235.52,-6.13 235.52,-13.13"/>
</a>
</g>
</g>
<!-- Node4 -->
<g id="Node000004" class="node">
<title>Node4</title>
<g id="a_Node000004"><a xlink:href="../../d5/da2/namespacebcpl.html#a58c3ca1e46633af7c7fb85a65b28fe62" target="_top" xlink:title="calculate a ** n mod m &#160;&#160;a の n 乗 mod m を求めます">
<polygon fill="white" stroke="#666666" points="442,-19.25 360,-19.25 360,0 442,0 442,-19.25"/>
<text text-anchor="middle" x="401" y="-5.75" font-family="Helvetica,sans-Serif" font-size="10.00">bcpl::pow_mod</text>
</a>
</g>
</g>
<!-- Node3&#45;&gt;Node4 -->
<g id="edge3_Node000003_Node000004" class="edge">
<title>Node3&#45;&gt;Node4</title>
<g id="a_edge3_Node000003_Node000004"><a xlink:title=" ">
<path fill="none" stroke="#63b8ff" d="M324.38,-9.62C332.08,-9.62 340.32,-9.62 348.41,-9.62"/>
<polygon fill="#63b8ff" stroke="#63b8ff" points="348.18,-13.13 358.18,-9.63 348.18,-6.13 348.18,-13.13"/>
</a>
</g>
</g>
</g>
</svg>
